<svg width="32" height="8" viewBox="0 0 32 8" fill="none" xmlns="http://www.w3.org/2000/svg">
<path d="M0.999512 3.5C0.723369 3.5 0.499512 3.72386 0.499512 4C0.499512 4.27614 0.723369 4.5 0.999512 4.5V3.5ZM31.3561 4.35355C31.5513 4.15829 31.5513 3.84171 31.3561 3.64645L28.1741 0.464466C27.9788 0.269204 27.6622 0.269204 27.467 0.464466C27.2717 0.659728 27.2717 0.976311 27.467 1.17157L30.2954 4L27.467 6.82843C27.2717 7.02369 27.2717 7.34027 27.467 7.53553C27.6622 7.7308 27.9788 7.7308 28.1741 7.53553L31.3561 4.35355ZM0.999512 4.5H31.0025V3.5H0.999512V4.5Z" fill="white"/>
</svg>
